<svg width="56" height="86" viewBox="0 0 56 86" fill="none" xmlns="http://www.w3.org/2000/svg">
<path d="M45.2717 -6.10352e-05L35.5632 27.1112H30.1687L39.8488 0.0220821V-6.10352e-05H45.2717Z" fill="#9871F3"/>
<path d="M39.8492 -6.10352e-05V0.0220821L30.169 27.1112H24.8424L34.5225 0.0220821V-6.10352e-05H39.8492Z" fill="#F0F0F0"/>
<path d="M34.5219 0V0.0221431L24.8419 27.1112H19.4001L29.1086 0H34.5219Z" fill="#6F9DE2"/>
<path d="M39.3551 27.5149C40.0681 29.1049 40.4639 30.8163 40.5271 32.5529C36.7115 30.6034 32.388 29.5039 27.809 29.5039C22.9745 29.5039 18.427 30.7295 14.4601 32.8841C14.4806 31.0339 14.8828 29.2058 15.64 27.5148L15.9933 26.7278C16.3876 25.846 17.2079 25.2293 18.1653 25.0953L19.2079 24.9486C24.7065 24.1788 30.2887 24.1788 35.7888 24.9486L36.8299 25.0953C37.7873 25.2294 38.6075 25.846 39.0019 26.7278L39.3551 27.5149ZM36.549 28.2893V27.2546C36.549 26.9549 36.306 26.7121 36.0064 26.7121H18.9886C18.6889 26.7121 18.4459 26.955 18.4459 27.2546V28.2893C18.4459 28.5906 18.6889 28.8335 18.9886 28.8335H36.0064C36.3061 28.8335 36.549 28.5907 36.549 28.2893Z" fill="#FDBC62"/>
<path d="M9.69043 0L19.3989 27.1112H24.7933L15.1133 0.0221431V0H9.69043Z" fill="#6F9DE2"/>
<path d="M15.1143 0V0.0221431L24.7943 27.1112H30.121L20.4409 0.0221431V0H15.1143Z" fill="#F0F0F0"/>
<path d="M20.4404 0V0.0221431L30.1206 27.1112H35.5624L25.8539 0H20.4404Z" fill="#9871F3"/>
<path d="M40.7172 32.553C49.7885 37.184 56 46.618 56 57.5032C56 72.9673 43.4633 85.504 27.9993 85.504C12.5351 85.504 0 72.9674 0 57.5032C0 46.8735 5.92291 37.6272 14.6503 32.8842C18.6173 30.7295 23.1647 29.504 27.9993 29.504C32.5782 29.504 36.9017 30.6033 40.7172 32.553Z" fill="#EDAC55"/>
<path d="M27.9993 83.2726C21.1162 83.2726 14.6454 80.592 9.77861 75.7248C4.91179 70.8577 2.23157 64.3864 2.23157 57.5032C2.23157 48.0474 7.39816 39.3655 15.715 34.8456C19.461 32.811 23.7089 31.7355 27.9993 31.7355C32.1222 31.7355 36.0598 32.6793 39.7029 34.5408C43.8693 36.6678 47.384 39.8919 49.8676 43.8648C52.4197 47.9475 53.7686 52.6636 53.7686 57.5033C53.7686 64.3864 51.0881 70.8576 46.2209 75.7249C41.3536 80.5921 34.8824 83.2726 27.9993 83.2726Z" fill="#FDBC62"/>
<path d="M23.4247 33.0072C23.4225 33.0089 23.4226 33.0106 23.4205 33.0123C23.3 33.1202 21.5924 34.6907 20.9224 36.057C20.2264 37.4722 18.0631 38.8908 18.0629 38.8913C18.0591 38.8916 18.1342 36.7247 19.0417 35.7306C20.1242 34.5312 23.3245 33.0514 23.4247 33.0072Z" fill="#C49047"/>
<path d="M22.7286 34.1383C22.342 35.0772 22.1177 35.8866 21.5566 36.9252C21.2293 37.5311 19.6746 38.5745 18.7351 38.7998C18.3595 38.9397 18.0627 38.8908 18.0627 38.8908C18.0631 38.8903 20.2262 37.4718 20.9223 36.0565C21.5922 34.6902 23.2996 33.1198 23.4203 33.0119C23.3681 33.0814 22.931 33.6487 22.7286 34.1383Z" fill="#FFDEAE"/>
<path d="M25.9621 37.4893C25.9593 37.4897 25.9579 37.4908 25.9552 37.4911C25.786 37.5142 23.3558 37.8641 21.8067 38.6004C20.2016 39.3647 17.5471 39.3131 17.5471 39.3127C17.545 39.3121 19.3211 37.615 20.7396 37.3066C22.4435 36.9325 25.8548 37.4723 25.9621 37.4893Z" fill="#C49047"/>
<path d="M24.588 38.0317C23.5812 38.5841 22.7883 39.1174 21.5727 39.648C20.8636 39.9583 18.9348 39.945 18.0932 39.6089C17.7166 39.5146 17.5471 39.3126 17.5471 39.3126C17.5471 39.313 20.2017 39.3646 21.8067 38.6003C23.3556 37.864 25.786 37.5141 25.9552 37.491C25.8642 37.5194 25.1134 37.7441 24.588 38.0317Z" fill="#FFDEAE"/>
<path d="M18.1905 36.0875C18.1888 36.0895 18.1889 36.0911 18.1871 36.093C18.0865 36.2136 16.6765 37.9634 16.2718 39.3859C15.8494 40.859 13.9635 42.5203 13.9637 42.5208C13.9598 42.5213 13.6072 40.3877 14.3225 39.3009C15.1716 37.9906 18.0975 36.143 18.1905 36.0875Z" fill="#C49047"/>
<path d="M17.7099 37.282C17.5039 38.2496 17.4362 39.0705 17.076 40.1584C16.8655 40.793 15.5135 42.0096 14.618 42.3478C14.2694 42.532 13.963 42.521 13.963 42.521C13.9627 42.5204 15.8489 40.8592 16.2712 39.3861C16.6756 37.9637 18.0859 36.2138 18.1865 36.0932C18.1474 36.1678 17.8182 36.7774 17.7099 37.282Z" fill="#FFDEAE"/>
<path d="M21.5984 40.1661C21.5958 40.1667 21.5944 40.1681 21.5917 40.1687C21.427 40.2122 19.0615 40.8552 17.6549 41.77C16.1981 42.7186 13.5329 42.9992 13.5325 42.9989C13.5298 42.9985 14.9731 41.1126 16.3344 40.6336C17.9685 40.0542 21.4886 40.1622 21.5984 40.1661Z" fill="#C49047"/>
<path d="M20.3275 40.8679C19.4268 41.5342 18.7369 42.1556 17.6249 42.8272C16.9767 43.2193 15.0457 43.4459 14.1374 43.2213C13.7422 43.1759 13.5325 42.9989 13.5325 42.9989C13.533 42.9992 16.1982 42.7186 17.6549 41.77C19.0615 40.8553 21.427 40.2122 21.5917 40.1688C21.5061 40.2079 20.7979 40.5206 20.3275 40.8679Z" fill="#FFDEAE"/>
<path d="M13.3037 39.9897C13.3024 39.992 13.3031 39.9935 13.302 39.9957C13.2376 40.1306 12.3673 42.0801 12.3995 43.5216C12.4273 45.0148 11.0746 46.9786 11.0758 46.9792C11.0724 46.98 10.0704 45.0046 10.4457 43.8244C10.8833 42.4026 13.227 40.0607 13.3037 39.9897Z" fill="#C49047"/>
<path d="M13.1873 41.2257C13.275 42.1915 13.4554 42.9904 13.4288 44.1033C13.4123 44.7525 12.4476 46.184 11.6683 46.6843C11.381 46.9294 11.0754 46.9792 11.0754 46.9792C11.0746 46.9786 12.4271 45.0148 12.3993 43.5216C12.367 42.0801 13.2374 40.1306 13.3017 39.9957C13.2856 40.0746 13.1423 40.7219 13.1873 41.2257Z" fill="#FFDEAE"/>
<path d="M17.896 43.2278C17.8935 43.2289 17.8926 43.2305 17.8902 43.2317C17.7403 43.3051 15.5958 44.3825 14.4853 45.5352C13.3354 46.7297 10.7962 47.5224 10.7962 47.5224C10.7921 47.5224 11.6377 45.4301 12.838 44.7043C14.2765 43.8276 17.7869 43.2447 17.896 43.2278Z" fill="#C49047"/>
<path d="M16.8503 44.1485C16.161 44.9632 15.6676 45.6943 14.7749 46.5559C14.2547 47.0589 12.4229 47.654 11.4592 47.6171C11.056 47.651 10.795 47.5226 10.7952 47.5225C10.7959 47.5225 13.335 46.7299 14.4849 45.5354C15.5953 44.3826 17.7399 43.3053 17.8898 43.2318C17.8168 43.2859 17.2108 43.7237 16.8503 44.1485Z" fill="#FFDEAE"/>
<path d="M9.77174 44.3561C9.77089 44.3584 9.77197 44.3598 9.77104 44.3621C9.72753 44.5013 9.16275 46.5098 9.42466 47.9317C9.68913 49.405 8.6496 51.4764 8.65092 51.4768C8.6479 51.4778 7.32849 49.6192 7.51531 48.4173C7.72558 46.9701 9.70554 44.4334 9.77174 44.3561Z" fill="#C49047"/>
<path d="M9.85015 45.588C10.0911 46.5337 10.3981 47.3061 10.5478 48.4091C10.6342 49.0524 9.89559 50.5601 9.19625 51.1292C8.94789 51.3989 8.65051 51.4772 8.65051 51.4772C8.64889 51.4766 9.68849 49.4052 9.42418 47.9319C9.16227 46.5099 9.72728 44.5016 9.77056 44.3624C9.76669 44.4416 9.72527 45.0946 9.85015 45.588Z" fill="#FFDEAE"/>
<path d="M14.8837 47.1207C14.8813 47.1221 14.881 47.1238 14.8786 47.1251C14.7397 47.2118 12.7606 48.4797 11.832 49.7252C10.8699 51.0157 8.4579 52.0408 8.45705 52.0411C8.45334 52.0412 8.96392 49.8911 10.0512 49.0594C11.3522 48.0556 14.7771 47.1477 14.8837 47.1207Z" fill="#C49047"/>
<path d="M13.9809 48.13C13.4184 49.0011 13.04 49.7707 12.2833 50.7078C11.8424 51.2547 10.1055 52.0167 9.13608 52.0718C8.73829 52.1437 8.45679 52.0414 8.45679 52.0414C8.45756 52.0411 10.8696 51.016 11.8317 49.7255C12.7601 48.48 14.7394 47.2121 14.8783 47.1254C14.8136 47.1857 14.2749 47.6759 13.9809 48.13Z" fill="#FFDEAE"/>
<path d="M7.0916 49.1217C7.09168 49.124 7.09268 49.1253 7.09245 49.1277C7.08409 49.2697 7.03098 51.3128 7.65081 52.6569C8.28457 54.0504 7.78436 56.2355 7.78653 56.2359C7.78459 56.2368 6.00593 54.6322 5.88407 53.4323C5.72156 51.9887 7.04383 49.207 7.0916 49.1217Z" fill="#C49047"/>
<path d="M7.48006 50.3075C7.95759 51.1896 8.45657 51.8932 8.88308 52.9447C9.13051 53.558 8.78181 55.1448 8.23638 55.8104C8.05986 56.1127 7.78603 56.236 7.78603 56.236C7.7837 56.2357 8.28415 54.0504 7.65031 52.6569C7.0304 51.3127 7.08367 49.2698 7.09195 49.1277C7.10782 49.2056 7.23162 49.8471 7.48006 50.3075Z" fill="#FFDEAE"/>
<path d="M12.8528 51.0072C12.8509 51.0088 12.8509 51.0105 12.8488 51.0122C12.7327 51.1184 11.0892 52.6647 10.4857 54.0258C9.85922 55.4358 7.74037 56.8161 7.73991 56.8165C7.73604 56.8171 7.69152 54.6385 8.55708 53.6566C9.58902 52.4723 12.7538 51.0497 12.8528 51.0072Z" fill="#C49047"/>
<path d="M12.2105 52.1327C11.8715 53.0704 11.69 53.8807 11.1788 54.9141C10.8805 55.5169 9.35976 56.5332 8.41755 56.7397C8.04384 56.8724 7.73927 56.8168 7.7395 56.8168C7.73973 56.8164 9.85874 55.4361 10.4853 54.0261C11.0886 52.6648 12.7322 51.1187 12.8484 51.0125C12.7994 51.0814 12.3881 51.6437 12.2105 52.1327Z" fill="#FFDEAE"/>
<path d="M5.56944 54.0342C5.5699 54.0366 5.57138 54.0376 5.57169 54.0399C5.59731 54.1799 6.04047 56.1838 6.97966 57.4072C7.9437 58.6762 7.98148 60.8926 7.9845 60.8926C7.98334 60.8935 5.83701 59.5849 5.42265 58.4294C4.90796 57.0406 5.54165 54.1245 5.56944 54.0342Z" fill="#C49047"/>
<path d="M6.24251 55.1344C6.92884 55.9255 7.5928 56.5391 8.26837 57.5052C8.66105 58.0688 8.70108 59.6752 8.32559 60.4085C8.22494 60.731 7.9854 60.8925 7.9854 60.8925C7.98238 60.8924 7.94445 58.676 6.98048 57.407C6.04137 56.1837 5.59814 54.1796 5.57251 54.0397C5.60719 54.1133 5.88506 54.7215 6.24251 55.1344Z" fill="#FFDEAE"/>
<path d="M11.7249 55.0209C11.7233 55.0228 11.7235 55.0244 11.722 55.0264C11.6323 55.1474 10.376 56.9045 10.1095 58.3275C9.83014 59.8017 8.0788 61.4689 8.07896 61.4694C8.07517 61.4701 7.49947 59.3412 8.11612 58.2515C8.84674 56.9382 11.6361 55.0768 11.7249 55.0209Z" fill="#C49047"/>
<path d="M11.3582 56.2179C11.2475 57.1864 11.2627 58.0071 11.0071 59.0957C10.8581 59.7307 9.60522 60.9518 8.72758 61.2937C8.39149 61.4792 8.07825 61.4697 8.07825 61.4697C8.07801 61.4692 9.82935 59.802 10.1088 58.3278C10.3755 56.9046 11.6315 55.1478 11.7214 55.0267C11.6891 55.1014 11.4168 55.7127 11.3582 56.2179Z" fill="#FFDEAE"/>
<path d="M5.49902 59.7559C5.50034 59.7581 5.50196 59.7589 5.50313 59.7609C5.57443 59.8902 6.67202 61.727 7.98818 62.7152C9.34296 63.7415 10.1165 65.8775 10.12 65.8771C10.1196 65.8776 7.61098 65.0496 6.82245 64.0205C5.85849 62.7853 5.50088 59.8481 5.49902 59.7559Z" fill="#C49047"/>
<path d="M6.51742 60.6765C7.44616 61.2969 8.29345 61.7524 9.26748 62.5467C9.83404 63.0102 10.4048 64.5543 10.2869 65.34C10.2972 65.6724 10.1201 65.8771 10.1201 65.8771C10.1164 65.8775 9.34265 63.7416 7.9881 62.7153C6.67195 61.7269 5.57436 59.89 5.50305 59.761C5.56143 59.8245 6.03346 60.3524 6.51742 60.6765Z" fill="#FFDEAE"/>
<path d="M11.8029 59.4438C11.8021 59.4461 11.8027 59.4475 11.8019 59.4498C11.7532 59.585 11.1105 61.5355 11.3231 62.9649C11.5381 64.4462 10.4039 66.4151 10.4052 66.4157C10.4019 66.4167 9.13504 64.475 9.37016 63.2976C9.63905 61.88 11.7337 59.5158 11.8029 59.4438Z" fill="#C49047"/>
<path d="M11.8389 60.673C12.0489 61.6304 12.3327 62.4204 12.4443 63.5249C12.5085 64.1692 11.7037 65.6046 10.972 66.1134C10.7098 66.3611 10.4048 66.4154 10.4048 66.4154C10.4035 66.415 11.5375 64.4459 11.3228 62.9647C11.1102 61.5351 11.7528 59.5847 11.8016 59.4496C11.795 59.5282 11.7298 60.1735 11.8389 60.673Z" fill="#FFDEAE"/>
<path d="M6.86426 64.6157C6.86565 64.6178 6.86728 64.6186 6.86875 64.6206C6.95027 64.7466 8.19349 66.5375 9.58939 67.4765C11.0268 68.4518 11.9673 70.5527 11.9705 70.5523C11.9704 70.5529 9.39251 69.8139 8.52199 68.8164C7.45931 67.6196 6.87324 64.7074 6.86426 64.6157Z" fill="#C49047"/>
<path d="M7.95659 65.4971C8.93604 66.0829 9.82065 66.507 10.8585 67.2646C11.4624 67.7067 12.1533 69.2251 12.096 70.0116C12.1317 70.3423 11.9701 70.5523 11.9701 70.5523C11.9666 70.5527 11.0265 68.4518 9.58893 67.4765C8.19296 66.5375 6.94966 64.7467 6.86829 64.6206C6.93154 64.6818 7.44608 65.191 7.95659 65.4971Z" fill="#FFDEAE"/>
<path d="M13.1634 64.0876C13.1629 64.0898 13.1636 64.0912 13.163 64.0935C13.1245 64.2297 12.6292 66.1943 12.9524 67.6106C13.2811 69.0787 12.2974 71.0783 12.2986 71.0788C12.2954 71.0798 10.8757 69.1894 11.0204 68.0089C11.1801 66.5878 13.0995 64.1615 13.1634 64.0876Z" fill="#C49047"/>
<path d="M13.2947 65.3106C13.5787 66.2569 13.9236 67.034 14.1202 68.1301C14.234 68.7696 13.5379 70.2269 12.8443 70.7585C12.6005 71.0142 12.2992 71.0787 12.2992 71.0787C12.298 71.0782 13.2818 69.0786 12.9531 67.6105C12.6298 66.1942 13.1253 64.2296 13.1637 64.0934C13.1628 64.172 13.1473 64.8168 13.2947 65.3106Z" fill="#FFDEAE"/>
<path d="M9.61365 69.946C9.61566 69.9478 9.61775 69.948 9.61976 69.9498C9.74402 70.0526 11.5905 71.5012 13.2616 72.1003C14.9862 72.7241 16.6497 74.5539 16.6533 74.553C16.6538 74.5531 13.9419 74.4028 12.7454 73.6317C11.2932 72.7085 9.6553 70.0316 9.61365 69.946Z" fill="#C49047"/>
<path d="M10.9794 70.5519C12.1275 70.8988 13.1247 71.1121 14.3885 71.615C15.1245 71.9086 16.3368 73.2265 16.5726 74.0016C16.7287 74.3142 16.653 74.5533 16.653 74.5533C16.6496 74.5542 14.9859 72.7243 13.2614 72.1005C11.5899 71.5013 9.74392 70.0527 9.61951 69.95C9.70242 69.9948 10.3807 70.3704 10.9794 70.5519Z" fill="#FFDEAE"/>
<path d="M14.0422 74.7382C14.0447 74.7396 14.0464 74.7395 14.0491 74.7409C14.1962 74.8247 16.3556 75.9973 18.1326 76.3596C19.968 76.7378 22.0343 78.321 22.0373 78.3199C22.0373 78.3199 19.3598 78.5408 18.0037 77.9435C16.3617 77.2298 14.1042 74.8161 14.0422 74.7382Z" fill="#C49047"/>
<path d="M15.5247 75.1459C16.7313 75.3292 17.7574 75.4019 19.1134 75.7249C19.9033 75.9136 21.4057 77.0502 21.8237 77.7851C22.0519 78.0729 22.0364 78.3199 22.0364 78.3199C22.0335 78.3209 19.967 76.7378 18.1317 76.3596C16.3548 75.9972 14.1951 74.8246 14.0481 74.7408C14.1403 74.7737 14.8952 75.0497 15.5247 75.1459Z" fill="#FFDEAE"/>
<path d="M15.4197 68.0367C15.4199 68.0391 15.4213 68.0402 15.4214 68.0425C15.4334 68.1825 15.6759 70.1887 16.5015 71.4888C17.3487 72.837 17.1543 74.9921 17.1568 74.9921C17.1552 74.9932 15.1125 73.4724 14.8146 72.2994C14.4402 70.8895 15.3837 68.1221 15.4197 68.0367Z" fill="#C49047"/>
<path d="M15.9884 69.189C16.6026 70.041 17.2127 70.7168 17.799 71.7354C18.1396 72.3297 18.0136 73.8949 17.5545 74.5622C17.4185 74.8636 17.1575 74.9921 17.1575 74.9921C17.1551 74.9919 17.3495 72.8369 16.5021 71.4886C15.6765 70.1886 15.4342 68.1823 15.4221 68.0424C15.4494 68.1184 15.6685 68.7445 15.9884 69.189Z" fill="#FFDEAE"/>
<path d="M18.9969 72.4816C18.9975 72.4835 18.9994 72.4843 18.9996 72.4864C19.0408 72.6054 19.6895 74.3068 20.6781 75.3287C21.6957 76.3893 21.9989 78.2811 22.0013 78.2809C22.0005 78.2815 19.9296 77.2165 19.4172 76.24C18.7882 75.067 18.9843 72.5598 18.9969 72.4816Z" fill="#C49047"/>
<path d="M19.7361 73.4054C20.4476 74.0643 21.1165 74.5724 21.8386 75.3811C22.2586 75.853 22.4915 77.2244 22.246 77.8596C22.1957 78.1375 22.0016 78.281 22.0016 78.281C21.9994 78.2812 21.696 76.3892 20.6785 75.3288C19.69 74.3069 19.0411 72.6056 19 72.4865C19.0403 72.5485 19.3654 73.0614 19.7361 73.4054Z" fill="#FFDEAE"/>
<path d="M31.5614 33.0068C31.5636 33.0085 31.5636 33.0102 31.5657 33.0119C31.6861 33.1199 33.3937 34.6904 34.0637 36.0566C34.7597 37.4718 36.923 38.8904 36.923 38.8904C36.927 38.8912 36.8519 36.7243 35.9444 35.7303C34.8619 34.5309 31.6617 33.051 31.5614 33.0068Z" fill="#C49047"/>
<path d="M32.2571 34.1386C32.6435 35.0775 32.8679 35.8869 33.4291 36.9255C33.7562 37.5314 35.311 38.5748 36.2506 38.8001C36.6261 38.94 36.9229 38.8911 36.9229 38.8911C36.9229 38.8911 34.7595 37.4721 34.0634 36.0569C33.3934 34.6905 31.686 33.1201 31.5653 33.0122C31.6176 33.0817 32.0546 33.649 32.2571 34.1386Z" fill="#FFDEAE"/>
<path d="M29.0233 37.4892C29.0261 37.4896 29.0276 37.4908 29.0303 37.4911C29.1994 37.5141 31.6296 37.8641 33.1787 38.6003C34.7839 39.3646 37.4383 39.3131 37.4383 39.3126C37.4405 39.3121 35.6643 37.6149 34.2457 37.3065C32.5419 36.9325 29.1305 37.4723 29.0233 37.4892Z" fill="#C49047"/>
<path d="M30.3963 38.0316C31.403 38.5841 32.196 39.1173 33.4116 39.648C34.1207 39.9582 36.0495 39.9449 36.8911 39.6088C37.2677 39.5146 37.4372 39.3125 37.4372 39.3125C37.4372 39.3129 34.7826 39.3645 33.1776 38.6003C31.6287 37.864 29.1983 37.514 29.0292 37.491C29.1202 37.5194 29.871 37.7441 30.3963 38.0316Z" fill="#FFDEAE"/>
<path d="M36.7931 36.0881C36.7948 36.0901 36.7946 36.0917 36.7964 36.0936C36.8971 36.2142 38.3071 37.964 38.7117 39.3865C39.1341 40.8597 41.02 42.5209 41.0199 42.5214C41.0237 42.5219 41.3762 40.3883 40.6611 39.3015C39.812 37.9912 36.886 36.1436 36.7931 36.0881Z" fill="#C49047"/>
<path d="M37.2735 37.2823C37.4795 38.2499 37.5473 39.0708 37.9074 40.1587C38.1179 40.7933 39.4699 42.0099 40.3655 42.3481C40.7141 42.5323 41.0204 42.5213 41.0204 42.5213C41.0208 42.5207 39.1346 40.8595 38.7123 39.3864C38.3079 37.964 36.8976 36.2141 36.797 36.0935C36.836 36.1681 37.1652 36.7777 37.2735 37.2823Z" fill="#FFDEAE"/>
<path d="M33.3888 40.1665C33.3913 40.1672 33.3928 40.1686 33.3955 40.1692C33.5602 40.2126 35.9256 40.8557 37.3323 41.7704C38.789 42.719 41.4542 42.9996 41.4547 42.9994C41.4573 42.9989 40.0141 41.113 38.6528 40.634C37.0187 40.0546 33.4986 40.1626 33.3888 40.1665Z" fill="#C49047"/>
<path d="M34.6598 40.8682C35.5605 41.5345 36.2504 42.1559 37.3625 42.8275C38.0106 43.2196 39.9416 43.4462 40.85 43.2216C41.2452 43.1762 41.4549 42.9992 41.4549 42.9992C41.4543 42.9995 38.7891 42.7189 37.3325 41.7703C35.9259 40.8556 33.5604 40.2125 33.3956 40.1691C33.4813 40.2082 34.1894 40.5209 34.6598 40.8682Z" fill="#FFDEAE"/>
<path d="M41.6825 39.9893C41.6837 39.9916 41.683 39.993 41.6841 39.9953C41.7485 40.1301 42.6188 42.0797 42.5866 43.5212C42.5589 45.0144 43.9114 46.9782 43.9103 46.9788C43.9137 46.9796 44.9157 45.0042 44.5404 43.824C44.1027 42.4021 41.7591 40.0603 41.6825 39.9893Z" fill="#C49047"/>
<path d="M41.7997 41.2253C41.712 42.191 41.5316 42.9899 41.5582 44.1029C41.5746 44.752 42.5394 46.1835 43.3187 46.6839C43.606 46.929 43.9116 46.9788 43.9116 46.9788C43.9124 46.9782 42.5599 45.0144 42.5877 43.5212C42.62 42.0797 41.7496 40.1302 41.6852 39.9953C41.7015 40.0742 41.8447 40.7215 41.7997 41.2253Z" fill="#FFDEAE"/>
<path d="M37.0909 43.2271C37.0933 43.2283 37.0944 43.2298 37.0967 43.231C37.2466 43.3045 39.3912 44.3818 40.5016 45.5346C41.6516 46.7291 44.1907 47.5217 44.1913 47.5217C44.1948 47.5217 43.3492 45.4294 42.1489 44.7036C40.7104 43.827 37.2 43.2441 37.0909 43.2271Z" fill="#C49047"/>
<path d="M38.1372 44.1477C38.8266 44.9625 39.3199 45.6935 40.2126 46.5551C40.7328 47.0581 42.5647 47.6532 43.5283 47.6163C43.9315 47.6502 44.1925 47.5218 44.1923 47.5217C44.1917 47.5217 41.6526 46.7291 40.5026 45.5346C39.3922 44.3818 37.2477 43.3045 37.0978 43.231C37.1709 43.2851 37.7768 43.7229 38.1372 44.1477Z" fill="#FFDEAE"/>
<path d="M45.2166 44.3562C45.2174 44.3585 45.2163 44.3599 45.2172 44.3622C45.2607 44.5014 45.8255 46.51 45.5636 47.9318C45.2991 49.4051 46.3386 51.4765 46.3373 51.477C46.3403 51.4779 47.6597 49.6193 47.4729 48.4174C47.2627 46.9702 45.2827 44.4335 45.2166 44.3562Z" fill="#C49047"/>
<path d="M45.1371 45.5884C44.8962 46.5341 44.5892 47.3065 44.4395 48.4094C44.3531 49.0528 45.0917 50.5604 45.791 51.1295C46.0394 51.3993 46.3368 51.4775 46.3368 51.4775C46.3384 51.477 45.2988 49.4055 45.5631 47.9323C45.8251 46.5103 45.26 44.5019 45.2168 44.3627C45.2206 44.442 45.2621 45.095 45.1371 45.5884Z" fill="#FFDEAE"/>
<path d="M40.1014 47.1211C40.1038 47.1225 40.1042 47.1242 40.1066 47.1255C40.2454 47.2121 42.2246 48.4801 43.1532 49.7256C44.1153 51.016 46.5273 52.0412 46.5281 52.0415C46.5318 52.0416 46.0213 49.8914 44.934 49.0598C43.633 48.0559 40.208 47.148 40.1014 47.1211Z" fill="#C49047"/>
<path d="M41.0036 48.1301C41.5662 49.0012 41.9445 49.7708 42.7012 50.7079C43.1421 51.2548 44.879 52.0168 45.8485 52.0719C46.2463 52.1437 46.5279 52.0414 46.5279 52.0414C46.527 52.0412 44.1149 51.016 43.1529 49.7256C42.2245 48.48 40.2452 47.2122 40.1063 47.1255C40.1708 47.1857 40.7097 47.676 41.0036 48.1301Z" fill="#FFDEAE"/>
<path d="M47.892 49.1216C47.8919 49.1239 47.8909 49.1251 47.8911 49.1275C47.8994 49.2696 47.9526 51.3127 47.3327 52.6568C46.699 54.0503 47.1992 56.2354 47.197 56.2358C47.199 56.2367 48.9776 54.6321 49.0995 53.4321C49.262 51.9886 47.9396 49.2069 47.892 49.1216Z" fill="#C49047"/>
<path d="M47.5035 50.3074C47.026 51.1895 46.527 51.8931 46.1005 52.9446C45.853 53.5579 46.2017 55.1447 46.7472 55.8103C46.9236 56.1126 47.1975 56.2359 47.1975 56.2359C47.1999 56.2356 46.6994 54.0503 47.3332 52.6568C47.9532 51.3126 47.8999 49.2697 47.8916 49.1276C47.8757 49.2054 47.7519 49.8469 47.5035 50.3074Z" fill="#FFDEAE"/>
<path d="M42.1307 51.0071C42.1327 51.0088 42.1327 51.0105 42.1348 51.0122C42.2509 51.1183 43.8943 52.6646 44.4979 54.0258C45.1244 55.4358 47.2432 56.816 47.2437 56.8165C47.2475 56.817 47.2921 54.6385 46.4265 53.6565C45.3946 52.4722 42.2298 51.0496 42.1307 51.0071Z" fill="#C49047"/>
<path d="M42.7725 52.1322C43.1115 53.07 43.2929 53.8802 43.8042 54.9136C44.1025 55.5165 45.6233 56.5328 46.5654 56.7392C46.9392 56.8719 47.2437 56.8163 47.2437 56.8163C47.2432 56.8159 45.1242 55.4357 44.4978 54.0256C43.8944 52.6644 42.2509 51.1182 42.1346 51.012C42.1837 51.0809 42.595 51.6433 42.7725 52.1322Z" fill="#FFDEAE"/>
<path d="M49.4158 54.0342C49.4153 54.0366 49.4139 54.0376 49.4136 54.0399C49.3879 54.1799 48.9448 56.1838 48.0056 57.4072C47.0415 58.6762 47.0038 60.8926 47.0007 60.8926C47.0019 60.8935 49.1482 59.5849 49.5626 58.4294C50.0773 57.0406 49.4436 54.1245 49.4158 54.0342Z" fill="#C49047"/>
<path d="M48.7436 55.1346C48.0574 55.9256 47.3934 56.5393 46.7178 57.5053C46.3252 58.069 46.2851 59.6754 46.6606 60.4087C46.7613 60.7312 47.0007 60.8926 47.0007 60.8926C47.0038 60.8926 47.0417 58.6762 48.0057 57.4072C48.9448 56.1838 49.3881 54.1798 49.4137 54.0399C49.379 54.1135 49.1012 54.7217 48.7436 55.1346Z" fill="#FFDEAE"/>
<path d="M43.2595 55.0206C43.2611 55.0225 43.2608 55.0241 43.2624 55.0261C43.3521 55.1471 44.6083 56.9042 44.8748 58.3272C45.1542 59.8014 46.9056 61.4685 46.9054 61.4691C46.9091 61.4698 47.4849 59.3409 46.8683 58.2512C46.1376 56.9379 43.3482 55.0765 43.2595 55.0206Z" fill="#C49047"/>
<path d="M43.6255 56.2169C43.7362 57.1855 43.721 58.0062 43.9765 59.0948C44.1256 59.7297 45.3785 60.9509 46.256 61.2928C46.5922 61.4783 46.9054 61.4688 46.9054 61.4688C46.9056 61.4683 45.1543 59.801 44.8748 58.3269C44.6081 56.9037 43.3522 55.1469 43.2623 55.0258C43.2945 55.1005 43.5669 55.7118 43.6255 56.2169Z" fill="#FFDEAE"/>
<path d="M49.4853 59.756C49.484 59.7582 49.4824 59.759 49.4812 59.7611C49.41 59.8903 48.3123 61.7271 46.9962 62.7154C45.6414 63.7416 44.8679 65.8776 44.8644 65.8772C44.8648 65.8777 47.3734 65.0498 48.1618 64.0206C49.1258 62.7854 49.4834 59.8482 49.4853 59.756Z" fill="#C49047"/>
<path d="M48.4669 60.6765C47.5381 61.2969 46.6909 61.7524 45.7168 62.5467C45.1503 63.0102 44.5795 64.5543 44.6974 65.34C44.6871 65.6724 44.8642 65.8771 44.8644 65.8771C44.8678 65.8775 45.6416 63.7416 46.9961 62.7153C48.3123 61.7269 49.4098 59.89 49.4812 59.761C49.4228 59.8245 48.9509 60.3524 48.4669 60.6765Z" fill="#FFDEAE"/>
<path d="M43.1832 59.4436C43.184 59.4458 43.1834 59.4472 43.1841 59.4496C43.2329 59.5847 43.8755 61.5353 43.6629 62.9647C43.448 64.446 44.5821 66.4149 44.5808 66.4154C44.5841 66.4164 45.851 64.4748 45.6159 63.2974C45.347 61.8797 43.2524 59.5155 43.1832 59.4436Z" fill="#C49047"/>
<path d="M43.1463 60.673C42.9362 61.6304 42.6525 62.4204 42.5408 63.5249C42.4767 64.1692 43.2815 65.6046 44.0131 66.1134C44.2753 66.3611 44.5803 66.4154 44.5803 66.4154C44.5816 66.415 43.4477 64.4459 43.6624 62.9647C43.875 61.5351 43.2324 59.5847 43.1836 59.4496C43.1902 59.5282 43.2554 60.1735 43.1463 60.673Z" fill="#FFDEAE"/>
<path d="M48.1209 64.6157C48.1195 64.6178 48.1179 64.6185 48.1164 64.6205C48.0349 64.7466 46.7917 66.5375 45.3958 67.4764C43.9584 68.4518 43.0179 70.5527 43.0146 70.5522C43.0148 70.5528 45.5927 69.8138 46.4632 68.8164C47.526 67.6196 48.1119 64.7073 48.1209 64.6157Z" fill="#C49047"/>
<path d="M47.0285 65.497C46.049 66.0828 45.1644 66.507 44.1265 67.2645C43.5227 67.7066 42.8318 69.225 42.8891 70.0115C42.8533 70.3422 43.015 70.5522 43.015 70.5522C43.0185 70.5526 43.9586 68.4518 45.3961 67.4764C46.792 66.5374 48.0354 64.7467 48.1168 64.6205C48.0536 64.6818 47.5391 65.191 47.0285 65.497Z" fill="#FFDEAE"/>
<path d="M41.8212 64.0875C41.8217 64.0897 41.821 64.0912 41.8216 64.0935C41.8601 64.2296 42.3554 66.1942 42.0322 67.6106C41.7035 69.0786 42.6872 71.0782 42.686 71.0788C42.6892 71.0798 44.1089 69.1893 43.9642 68.0088C43.8045 66.5878 41.8851 64.1615 41.8212 64.0875Z" fill="#C49047"/>
<path d="M41.6914 65.3106C41.4074 66.2569 41.0625 67.034 40.8659 68.1301C40.7521 68.7697 41.4482 70.2269 42.1418 70.7586C42.3856 71.0143 42.6869 71.0788 42.6869 71.0788C42.688 71.0782 41.7043 69.0787 42.033 67.6106C42.3563 66.1942 41.8608 64.2297 41.8223 64.0935C41.8233 64.1721 41.8387 64.8168 41.6914 65.3106Z" fill="#FFDEAE"/>
<path d="M45.3726 69.9464C45.3707 69.9481 45.3686 69.9483 45.3666 69.9501C45.2423 70.0529 43.3959 71.5015 41.7247 72.1007C40.0002 72.7244 38.3366 74.5542 38.333 74.5533C38.333 74.5533 41.0444 74.4031 42.2409 73.632C43.6931 72.7088 45.3309 70.0319 45.3726 69.9464Z" fill="#C49047"/>
<path d="M44.0062 70.5522C42.8581 70.8991 41.861 71.1124 40.597 71.6153C39.8611 71.9089 38.6487 73.2268 38.413 74.0019C38.2569 74.3145 38.3325 74.5536 38.3325 74.5536C38.3359 74.5545 39.9996 72.7246 41.7242 72.1008C43.3957 71.5016 45.2416 70.053 45.3661 69.9503C45.2832 69.9951 44.6049 70.3707 44.0062 70.5522Z" fill="#FFDEAE"/>
<path d="M40.9442 74.738C40.9416 74.7395 40.9399 74.7394 40.9374 74.7407C40.7902 74.8246 38.6308 75.9972 36.8538 76.3595C35.0184 76.7377 32.9521 78.3208 32.9491 78.3198C32.9491 78.3198 35.6266 78.5406 36.9826 77.9434C38.6247 77.2297 40.8822 74.816 40.9442 74.738Z" fill="#C49047"/>
<path d="M39.461 75.1457C38.2543 75.329 37.2283 75.4017 35.8723 75.7248C35.0823 75.9134 33.58 77.05 33.162 77.7849C32.9337 78.0727 32.9493 78.3197 32.9493 78.3197C32.9523 78.3207 35.0187 76.7376 36.8541 76.3594C38.631 75.997 40.7906 74.8244 40.9377 74.7407C40.8454 74.7735 40.0903 75.0496 39.461 75.1457Z" fill="#FFDEAE"/>
<path d="M39.5661 68.0363C39.566 68.0386 39.5645 68.0397 39.5644 68.0421C39.5524 68.182 39.3099 70.1882 38.4843 71.4883C37.637 72.8366 37.8314 74.9916 37.829 74.9917C37.8306 74.9927 39.8733 73.4719 40.1712 72.2989C40.5457 70.889 39.6023 68.1216 39.5661 68.0363Z" fill="#C49047"/>
<path d="M38.9981 69.1888C38.384 70.0407 37.7737 70.7165 37.1874 71.7351C36.8468 72.3295 36.9728 73.8946 37.4319 74.562C37.568 74.8633 37.829 74.9918 37.829 74.9918C37.8314 74.9917 37.637 72.8367 38.4843 71.4884C39.3099 70.1883 39.5523 68.1821 39.5644 68.0422C39.537 68.1181 39.3179 68.7442 38.9981 69.1888Z" fill="#FFDEAE"/>
<path d="M35.9908 72.4813C35.9903 72.4833 35.9884 72.484 35.9881 72.4861C35.9469 72.6052 35.2982 74.3066 34.3095 75.3285C33.2921 76.3891 32.9888 78.2809 32.9863 78.2807C32.9872 78.2813 35.058 77.2163 35.5705 76.2398C36.1996 75.0667 36.0036 72.5595 35.9908 72.4813Z" fill="#C49047"/>
<path d="M35.2515 73.4052C34.54 74.064 33.871 74.5721 33.149 75.3809C32.729 75.8528 32.4961 77.2241 32.7416 77.8594C32.7919 78.1372 32.986 78.2808 32.986 78.2808C32.9882 78.281 33.2917 76.389 34.309 75.3286C35.2975 74.3067 35.9465 72.6054 35.9876 72.4862C35.9473 72.5483 35.6222 73.0611 35.2515 73.4052Z" fill="#FFDEAE"/>
<path d="M19.7178 68.0765V62.2167H24.1023V53.4572H19.7178V47.8346H20.8325C21.4525 47.8346 22.0529 47.7977 22.6168 47.725C23.1107 47.6615 23.5139 47.5564 23.8156 47.4126C24.1073 47.2724 24.3217 47.1005 24.45 46.9034C24.5856 46.6946 24.6669 46.4043 24.6912 46.0404L24.7606 45H31.54V62.2167H35.8267V68.0765H19.7178Z" fill="#C49047"/>
<path d="M34.7134 66.9616H20.834V63.3312H25.2185V52.3421H20.834V48.9491C21.5042 48.9491 22.1465 48.9096 22.7609 48.8303C23.3752 48.7514 23.8871 48.614 24.2969 48.4185C24.7807 48.186 25.1438 47.8833 25.3859 47.5109C25.6279 47.1386 25.7675 46.673 25.8049 46.1145H30.4267V63.3312H34.7134V66.9616Z" fill="#FFDEAE"/>
<path d="M32.0183 78.8171C32.0183 79.8733 30.0205 80.7296 27.556 80.7296C25.0916 80.7296 23.0938 79.8733 23.0938 78.8171C23.0938 77.7608 25.0916 76.9045 27.556 76.9045C30.0205 76.9046 32.0183 77.7608 32.0183 78.8171Z" fill="#C49047"/>
<path d="M27.5565 80.395C25.1239 80.395 23.4287 79.5633 23.4287 78.8168C23.4287 78.0705 25.1239 77.2388 27.5565 77.2388C29.9892 77.2388 31.6845 78.0705 31.6845 78.8168C31.6845 79.5633 29.9892 80.395 27.5565 80.395Z" fill="#FFDEAE"/>
</svg>
